<?xml version="1.0" encoding="utf-8"?>
<!-- Generator: Adobe Illustrator 19.0.1, SVG Export Plug-In . SVG Version: 6.00 Build 0)  -->
<svg version="1.1" id="Layer_1" xmlns="http://www.w3.org/2000/svg" xmlns:xlink="http://www.w3.org/1999/xlink" x="0px" y="0px"
	 width="200px" height="74px" viewBox="0 0 200 74" style="enable-background:new 0 0 200 74;" xml:space="preserve">
<metadata><?xpacket begin="﻿" id="W5M0MpCehiHzreSzNTczkc9d"?>
<x:xmpmeta xmlns:x="adobe:ns:meta/" x:xmptk="Adobe XMP Core 5.6-c067 79.157747, 2015/03/30-23:40:42        ">
   <rdf:RDF xmlns:rdf="http://www.w3.org/1999/02/22-rdf-syntax-ns#">
      <rdf:Description rdf:about=""/>
   </rdf:RDF>
</x:xmpmeta>
                                                                                                    
                                                                                                    
                                                                                                    
                                                                                                    
                                                                                                    
                                                                                                    
                                                                                                    
                                                                                                    
                                                                                                    
                                                                                                    
                                                                                                    
                                                                                                    
                                                                                                    
                                                                                                    
                                                                                                    
                                                                                                    
                                                                                                    
                                                                                                    
                                                                                                    
                                                                                                    
                           
<?xpacket end="w"?></metadata>
<g>
	<path style="fill:#151F25;" d="M9.8,3H8.6c-1.1,0-3,0-4.4,0.5C3.5,4.1,2,6.1,1.2,7.3C1.1,7.5,1,7.6,0.9,7.5L0.1,7.3
		C0,7.2,0,7.1,0,7c0.4-1.4,1.5-5.7,1.6-6.4C1.7,0.1,1.9,0,2.1,0c0.2,0,0.3,0.1,0.6,0.5c0.4,0.5,1,0.8,2.2,0.8
		C6.6,1.4,8,1.5,11.5,1.5h1.9c3.6,0,5-0.1,6.4-0.2c0.7,0,2-0.4,2.4-0.8C22.5,0.2,22.7,0,22.9,0c0.2,0,0.3,0.1,0.4,0.5
		c0.1,0.7,0.7,4.8,1,6.6c0,0.1,0,0.3-0.1,0.3l-0.7,0.3c-0.1,0-0.2-0.1-0.3-0.3c-0.7-1.2-2-2.9-2.8-3.7C19.5,3.2,16.6,3,15.8,3h-1.1
		v9.1c0,0.5,0,9.7,0,10.2c0.1,0.8,0.3,1.3,1.1,1.3h1.5c0.3,0,0.3,0.1,0.3,0.3v0.8c0,0.2,0,0.3-0.3,0.3c-0.3,0-1.4-0.1-5-0.1
		C8.8,24.9,7.4,25,7,25c-0.3,0-0.3-0.1-0.3-0.4V24c0-0.2,0-0.3,0.2-0.3h1.7c0.7,0,1.1-0.4,1.1-1c0.1-0.7,0.1-10.8,0.1-11.5V3z"/>
	<path style="fill:#151F25;" d="M45.7,13.8c0-7.2-4.7-11.2-7.5-11.2c-0.7,0-2.3-0.2-4.3,1.8c-1.9,1.8-2.9,5.3-2.9,8
		c0,8.4,4.9,11.5,7.6,11.5C44.6,23.8,45.7,16.5,45.7,13.8 M30.5,23.2c-2.3-1.4-4.8-5-4.8-9.8c0-2,0.5-5.1,3.1-8.2
		C31.7,1.7,35.4,1,38.3,1c2.7,0,5.3,0.4,8,2.6c2.5,2,4.5,5.3,4.5,9.9c0,2.4-0.8,4.9-2.5,7.2c-2.1,2.7-4.9,4.7-10.2,4.7
		C36,25.4,33.1,24.8,30.5,23.2"/>
	<path style="fill:#151F25;" d="M62,13.4c0.6,0,1,0,1.3,0c4.4,0,5.4-4.2,5.4-5.7c0-1.5-0.5-3-1.3-3.7c-1.2-1.1-2.7-1.5-3.7-1.5
		c-0.6,0-1,0.1-1.3,0.3c-0.2,0.1-0.3,0.5-0.4,0.9L62,13.4z M57.4,9.9c0-2.4,0-4.6,0-5.4c0-1.1-0.5-1.7-0.9-1.7h-1.3
		c-0.2,0-0.2-0.1-0.2-0.2V1.6c0-0.2,0-0.2,0.2-0.2c0.3,0,1.3,0.1,4.9,0.1c1.8,0,4.8-0.1,6.1-0.1c2.6,0,4.5,0.9,5.8,2.2
		c1.2,1.1,1.9,2.4,1.9,3.6c0,4.2-3.1,6.1-6,6.3v0.2c1,0.3,1.5,1,2.2,1.7c0.4,0.5,2.2,3.5,2.5,3.9c0.2,0.3,2,2.8,2.6,3.6
		c0.4,0.4,1.7,0.7,2.4,0.7c0.2,0,0.3,0.1,0.3,0.3v0.8c0,0.2,0,0.3-0.3,0.3c-0.3,0-1.1-0.1-3.7-0.1c-1,0-2.2,0.1-3.1,0.1
		c-1-0.8-3-4.6-3.6-5.7c-1.1-2.2-2.5-4.7-4.1-4.7H62v1.7c0,1.9,0.1,5.6,0.2,6.1c0.1,0.7,0.3,1.3,0.8,1.3h1.4c0.2,0,0.3,0.1,0.3,0.3
		v0.8c0,0.2,0,0.3-0.5,0.3c0,0-0.9-0.1-4.3-0.1c-3.5,0-4.3,0.1-4.6,0.1c-0.3,0-0.3-0.1-0.3-0.3v-0.8c0-0.2,0-0.3,0.2-0.3h1
		c0.7,0,1.3-0.2,1.3-1.1c0.1-3.3,0.1-6.4,0.1-9.5V9.9z"/>
	<path style="fill:#151F25;" d="M111.5,34.8L111.5,34.8c-0.4,0-0.7,0-1,0c-0.6,0-1.2-0.1-1.7-0.2c-5.1-0.6-9.7-2.8-14.3-6.7
		c-1.1-1-2.2-2.1-3.2-3.3L91,24.4l3.4-0.7l0.1,0.1c1.5,1.2,3.2,2.4,5,3.7c3.6,2.5,8,4.3,11.8,4.8c4,0.5,7.2-0.5,9.4-2.9
		c0.1-0.2,0.4-0.3,0.6-0.3c0.4,0,0.7,0.2,0.8,0.5c0.1,0.1,0.2,0.5-0.1,0.9C119.2,34.2,114.2,34.8,111.5,34.8"/>
	<path style="fill:#151F25;" d="M98.5,13.8c0-7.2-4.7-11.2-7.5-11.2c-0.7,0-2.3-0.2-4.3,1.8c-1.9,1.8-2.9,5.3-2.9,8
		c0,8.4,4.9,11.5,7.6,11.5C97.4,23.8,98.5,16.5,98.5,13.8 M83.3,23.2c-2.3-1.4-4.9-5-4.9-9.8c0-2,0.5-5.1,3.1-8.2
		C84.4,1.7,88.1,1,91.1,1c2.7,0,5.3,0.4,8,2.6c2.5,2,4.5,5.3,4.5,9.9c0,2.4-0.8,4.9-2.5,7.2c-2.1,2.7-5,4.7-10.2,4.7
		C88.7,25.4,85.9,24.8,83.3,23.2"/>
	<path style="fill:#151F25;" d="M109.3,4.5c0-1.2-0.2-1.7-0.9-1.7h-1.6c-0.2,0-0.2-0.1-0.2-0.3V1.7c0-0.2,0-0.3,0.3-0.3
		c0.3,0,1.9,0.1,5.4,0.1c2.9,0,4.5-0.1,4.8-0.1c0.3,0,0.3,0.1,0.3,0.3v0.9c0,0.2,0,0.2-0.3,0.2H116c-1.1,0-1.7,0.6-1.7,1.3
		c0,0.4-0.1,2.6-0.1,4.3v2.2c0,1.8,0.1,5.9,0.2,7c0,1.5,0.3,3,1.1,3.9c1.1,1.3,2.6,1.8,4.1,1.8c1.2,0,3-0.6,3.9-1.5
		c1.3-1.2,2.1-3,2.1-5.4v-5.1c0-2.8-0.3-6.4-0.5-7.2c-0.1-0.9-0.7-1.5-1.2-1.5h-1.1c-0.2,0-0.2-0.1-0.2-0.3V1.6c0-0.2,0-0.2,0.2-0.2
		c0.3,0,1.8,0.1,4.1,0.1c1.8,0,2.8-0.1,3.1-0.1c0.3,0,0.3,0.1,0.3,0.3v0.7c0,0.2,0,0.3-0.2,0.3h-1c-1.3,0-1.4,0.9-1.4,1.3
		c-0.1,0.5-0.1,5-0.1,5.5c0,0.5-0.1,6.2-0.2,7.5c-0.2,2.7-1.1,4.8-2.8,6.3c-1.5,1.3-3.7,2-5.8,2c-1.5,0-3.7-0.2-5-0.8
		c-1.6-0.7-3-2.2-3.8-4.4c-0.6-1.4-0.7-3.6-0.7-8V4.5z"/>
	<path style="fill:#151F25;" d="M141.1,12.2c1.5,0,3-0.1,3.4-0.2c0.6-0.1,1-0.4,1.5-1c0.4-0.5,0.8-1.4,0.8-2c0-0.2,0.1-0.3,0.3-0.3
		l0.9,0.1c0.2,0,0.3,0.1,0.3,0.3c-0.1,0.6-0.1,2.3-0.1,3.4c0,1.5,0.1,3.1,0.2,3.8c0,0.2-0.1,0.2-0.3,0.3l-0.8,0.2
		c-0.1,0-0.2,0-0.3-0.3c-0.1-0.5-0.5-1.3-0.7-1.7c-0.4-0.6-1.2-1.1-1.8-1.2c-0.9-0.1-1.9-0.2-3.4-0.2v2c0,1.8,0.2,5,0.2,5.6
		c0,1.7,0.4,2.3,0.8,2.5c0.5,0.2,1.1,0.3,2.8,0.3c0.6,0,1.9,0,2.6-0.1c0.7-0.1,1.6-0.4,2.5-1.1c0.9-0.7,2.7-2.7,3.4-3.5
		c0.1-0.1,0.2-0.2,0.3-0.1l0.6,0.3c0.1,0.1,0.2,0.2,0.1,0.3l-1.5,5c-0.1,0.3-0.3,0.5-0.7,0.5c-0.2,0-0.9,0-3-0.1
		c-2.1,0-5.6,0-11.3,0c-1.2,0-2.1,0-2.8,0c-0.7,0-1.1,0.1-1.4,0.1c-0.2,0-0.3-0.1-0.3-0.4v-0.7c0-0.2,0.1-0.3,0.3-0.3h1
		c1.5,0,1.6-0.2,1.6-1.4V11.2c0-2.7-0.1-6.8-0.1-7.1c-0.1-1.1-0.5-1.3-1.3-1.3h-1.3c-0.1,0-0.2-0.1-0.2-0.3V1.7c0-0.1,0-0.2,0.2-0.2
		c0.7,0,1.9,0.1,4.9,0.1l11.6,0c0.5,0,1.2-0.1,1.3-0.1c0.2,0,0.2,0.1,0.3,0.2c0.1,0.5,1.2,5,1.4,5.3c0.1,0.2,0.1,0.2-0.1,0.3
		l-0.5,0.3c-0.1,0.1-0.3,0-0.4-0.1c-0.2-0.3-3.1-3.2-3.9-3.7c-0.7-0.4-1.6-0.9-2.5-0.9l-4.4-0.1L141.1,12.2z"/>
	<path style="fill:#151F25;" d="M159.8,17.6c0.1,0,0.2,0,0.2,0.3c0.1,1,0.5,2.4,1.3,3.7c1,1.5,2.6,2.2,4.2,2.2
		c1.6,0,4.1-1.1,4.1-3.7c0-2.7-0.5-3.5-4.8-5.1c-1-0.4-3.1-1.4-4.8-2.9c-1.2-1-1.7-2.8-1.7-4.7c0-2,0.5-3.4,2.5-4.9
		c1.5-1.1,2.7-1.6,4.8-1.6c2.4,0,3.7,0.4,4.4,0.7c0.3,0.1,0.6,0.1,0.8-0.2l0.4-0.4c0.1-0.1,0.3-0.2,0.5-0.2c0.2,0,0.3,0.4,0.3,0.6
		l0.5,5.6c0,0.1-0.1,0.2-0.2,0.2l-0.7,0.2c-0.2,0.1-0.3,0-0.4-0.2c-0.4-1-0.9-2.2-2-3.4c-0.8-0.9-1.8-1.4-3.3-1.4
		c-2.5,0-3.5,2.1-3.5,3c0,1.2,0,2.2,0.9,3c0.9,0.9,2.7,1.7,4.4,2.1c1.6,0.5,2.9,1.3,4.2,2.5c1.3,1.2,1.8,2.6,1.8,4.9
		c0,4-2.9,7.3-7.2,7.3c-3,0-4.5-0.5-5.9-1.4c-0.4-0.3-0.6-0.4-0.8-0.4c-0.2,0-0.3,0.2-0.5,0.6c-0.2,0.4-0.4,0.4-0.6,0.4
		c-0.4,0-0.5-0.2-0.5-0.5l0.5-6.3c0-0.2,0.1-0.2,0.3-0.2L159.8,17.6z"/>
	<path style="fill:#151F25;" d="M185.4,3h-1.2c-1.1,0-3,0-4.4,0.5c-0.7,0.5-2.2,2.5-3,3.7c-0.1,0.2-0.2,0.3-0.3,0.2l-0.7-0.3
		c-0.1,0-0.2-0.2-0.1-0.3c0.4-1.4,1.4-5.7,1.6-6.4c0.1-0.4,0.3-0.6,0.5-0.6c0.2,0,0.3,0.1,0.6,0.5c0.4,0.5,1,0.8,2.2,0.8
		c1.7,0.1,3.1,0.2,6.6,0.2h1.9c3.6,0,5-0.1,6.4-0.2c0.7,0,2-0.4,2.4-0.8c0.3-0.3,0.5-0.5,0.8-0.5c0.2,0,0.3,0.1,0.4,0.5
		c0.1,0.7,0.7,4.8,1,6.6c0,0.1,0,0.3-0.1,0.3l-0.7,0.3c-0.1,0-0.2-0.1-0.3-0.3c-0.7-1.2-2-2.9-2.8-3.7c-0.8-0.5-3.8-0.6-4.5-0.6
		h-1.1v9.1c0,0.5,0,9.7,0,10.2c0.1,0.8,0.3,1.3,1.1,1.3h1.5c0.3,0,0.3,0.1,0.3,0.3v0.8c0,0.2,0,0.3-0.3,0.3c-0.3,0-1.4-0.1-5-0.1
		c-3.5,0-4.9,0.1-5.3,0.1c-0.3,0-0.3-0.1-0.3-0.4V24c0-0.2,0-0.3,0.2-0.3h1.7c0.7,0,1.1-0.4,1.1-1c0.1-0.7,0.1-10.8,0.1-11.5V3z"/>
	<path style="fill:#151F25;" d="M164.1,64.4c-0.2,0.6-0.7,1.9-0.7,2.3c0,0.5,0.4,0.8,0.8,0.8c2,0,3.9-1.9,4-2.1c0.1-0.1,0-0.2,0-0.3
		l-0.3-0.2c-0.1-0.1-0.1-0.1-0.2,0c-0.3,0.3-1.2,1.2-1.6,1.2s-0.2-0.8,0-1.4l4.5-12.3c0.1-0.2,0-0.3-0.2-0.3H167
		c-0.1,0-0.2,0-0.2,0.1l-0.1,0.5c0,0.1,0,0.2,0.1,0.2h0.7c0.7,0,0.7,0.6,0.4,1.4L164.1,64.4z M155.5,65.9c-0.4,0-0.5-0.2-0.5-0.7
		c0-1.3,0.6-3.3,1.9-5.1c0.6-0.8,1.3-1.4,1.8-1.4c0.6,0,1,0.6,1,1c0,0.7-0.2,1.4-0.5,2C158.8,62.7,156.3,65.9,155.5,65.9
		 M161.3,57.8c-0.1,0-0.3,0-0.4,0.2l-0.4,0.6c-0.3-0.4-0.7-0.8-1.7-0.8c-3,0-6.2,5-6.2,8c0,0.9,0.8,1.6,1.4,1.6
		c1.8,0,3.7-2.4,4.6-3.8l0.1,0c-0.8,2.3-0.9,2.8-0.9,3.2c0,0.4,0.2,0.6,0.7,0.6c1.8,0,3.3-1.9,3.6-2.3c0-0.1,0-0.2,0-0.3l-0.3-0.2
		c-0.1-0.1-0.1,0-0.2,0.1c-0.2,0.2-1.1,1.3-1.4,1.3c-0.2,0-0.3,0-0.3-0.3c0-0.3,0.9-2.9,0.9-3.3c0.2-0.6,1.3-3.5,1.7-4.4
		c0-0.1,0-0.2-0.1-0.2H161.3z M150.5,59.4h2.3c0.1,0,0.2,0,0.2-0.1l0.2-0.7c0-0.1,0-0.2-0.1-0.2h-2.3l1.5-3c0.1-0.2,0-0.5-0.1-0.5
		c-0.1,0-0.2,0.1-0.4,0.1c-0.2,0.1-1.1,0.5-1.5,0.6c-0.4,0-0.5,0.1-0.6,0.3l-0.9,2.4H147c-0.1,0-0.2,0-0.2,0.2l-0.2,0.6
		c0,0.2,0,0.2,0.1,0.2h1.7l-2.4,6.2c-0.1,0.4-0.2,0.9-0.2,1.3c0,0.3,0.3,0.7,0.9,0.7c2,0,4-1.9,4.3-2.3c0-0.1,0-0.1,0-0.2l-0.2-0.3
		c-0.1-0.1-0.1-0.1-0.2,0c-0.1,0.1-1.5,1.3-2,1.3c-0.3,0-0.4-0.2-0.4-0.4c0-0.3,0.2-0.8,0.4-1.3L150.5,59.4z M143.9,54.5
		c0.9,0,1.5-0.9,1.5-1.4c0-0.6-0.5-1.3-1.5-1.3c-0.8,0-1.4,0.7-1.4,1.4C142.5,53.8,142.9,54.5,143.9,54.5 M143.5,60.9
		c0.4-1.1,0.7-1.9,0.7-2.3c0-0.5-0.3-0.7-0.8-0.7c-2,0-4,2.6-4.1,2.7c0,0.1,0,0.1,0.1,0.2l0.2,0.2c0.1,0.1,0.2,0.1,0.3,0
		c0.3-0.4,1.3-1.5,1.7-1.5c0.2,0,0.3,0.1,0.3,0.3c0,0.3-0.2,0.7-0.4,1.3l-0.6,1.8c-0.9,2.5-1.3,3.6-1.3,4c0,0.4,0.2,0.6,0.7,0.6
		c2.5,0,4-2.2,4.2-2.3c0.1-0.1,0-0.1,0-0.2l-0.2-0.2c-0.1-0.1-0.2-0.1-0.2,0c-0.1,0.2-1.3,1.4-1.8,1.4c-0.2,0-0.3-0.1-0.3-0.3
		c0-0.2,0.1-0.6,0.4-1.4L143.5,60.9z M133.3,59c0.2-0.1,0.4-0.1,0.7-0.1c0.8,0,1.7,0.7,1.7,2.5c0,2.7-2.8,4.6-5,5L133.3,59z
		 M130.3,67.2c1.8-0.2,3.6-0.9,4.7-1.7c2-1.5,2.7-3.1,2.7-4.7s-1.1-3-3.3-3c-0.2,0-0.5,0-0.8,0l1.1-2.5c0-0.1,0.1-0.1,0.1-0.2
		c0,0,0-0.1-0.1-0.1c-0.1,0-0.1,0-0.2,0l-2,0.6c-0.2,0-0.3,0.1-0.4,0.3l-0.7,2.2c-1.8,0.7-2.9,1.9-3.6,2.7c0,0.1,0,0.2,0,0.2
		l0.3,0.2c0.1,0.1,0.2,0.1,0.3,0c0.4-0.5,1.5-1.6,2.6-1.8l-4.2,11.9c-0.4,1.3-0.9,1.8-1.7,1.8h-0.5c-0.1,0-0.1,0.1-0.2,0.2l-0.1,0.5
		c0,0.1,0,0.1,0.2,0.1c0.3,0,0.9-0.1,2.7-0.1c1.7,0,2.4,0.1,2.6,0.1c0.2,0,0.3,0,0.3-0.1l0.1-0.5c0-0.1,0-0.2-0.1-0.2h-0.6
		c-0.9,0-1.1-0.4-0.7-1.5L130.3,67.2z M119.8,65.9c-0.4,0-0.5-0.2-0.5-0.7c0-1.3,0.6-3.3,1.9-5.1c0.6-0.8,1.3-1.4,1.8-1.4
		c0.6,0,1,0.6,1,1c0,0.7-0.2,1.4-0.5,2C123.1,62.7,120.7,65.9,119.8,65.9 M125.7,57.8c-0.1,0-0.3,0-0.4,0.2l-0.4,0.6
		c-0.3-0.4-0.7-0.8-1.7-0.8c-3,0-6.2,5-6.2,8c0,0.9,0.8,1.6,1.4,1.6c1.8,0,3.7-2.4,4.6-3.8l0.1,0c-0.8,2.3-0.9,2.8-0.9,3.2
		c0,0.4,0.2,0.6,0.7,0.6c1.8,0,3.3-1.9,3.6-2.3c0-0.1,0-0.2,0-0.3l-0.3-0.2c-0.1-0.1-0.1,0-0.2,0.1c-0.2,0.2-1.1,1.3-1.4,1.3
		c-0.2,0-0.3,0-0.3-0.3c0-0.3,0.9-2.9,0.9-3.3c0.2-0.6,1.3-3.5,1.7-4.4c0-0.1,0-0.2-0.1-0.2H125.7z M117.5,52.9c0-0.1,0-0.2-0.1-0.2
		l-0.4-0.1c-0.1,0-0.2,0-0.2,0.1c-0.1,0.4-0.3,0.6-0.6,0.6c-0.3,0-0.8-0.4-1-0.6c-0.9-0.6-1.9-0.9-3-0.9c-2.3,0-4.3,1-5.8,2.6
		c-2.1,2.3-3.2,4.7-3.2,7.9c0,3.2,2.3,5.3,5.7,5.3c1.2,0,2.7-0.4,3.1-0.6c0.4-0.2,0.7-0.3,0.9-0.3c0.2,0,0.3,0.2,0.3,0.4
		c0,0.1,0,0.3,0,0.4c0,0.1,0,0.1,0,0.2l0.4,0.1c0.1,0,0.2,0,0.2-0.1l1.6-4.9c0-0.1,0-0.1-0.1-0.2l-0.4-0.1c-0.1,0-0.1,0-0.2,0.1
		c-1.5,3.4-3.8,3.9-5.5,3.9c-1.2,0-3.2-0.9-3.2-4.1c0-1.8,0.5-4.5,2.2-7c1.3-1.8,2.5-2.6,4-2.6c2.6,0,3.5,2.4,3.1,4.6
		c0,0.2,0,0.2,0.1,0.2l0.4,0c0.1,0,0.2,0,0.2-0.1L117.5,52.9z M93.2,60c0,0.9-0.8,2.4-1.4,3.2c-0.9,1.2-2.2,2.8-2.8,2.8
		c-0.3,0-0.6-0.3-0.6-0.8c0-1.8,2.1-6.6,3.6-6.6C92.8,58.7,93.2,59.3,93.2,60 M94.4,52.1c-0.3,0-0.3,0-0.4,0.1L94,52.7
		c0,0,0,0.1,0.2,0.1h0.7c0.6,0,0.7,0.5,0.6,0.9l-1.5,4.9c-0.4-0.5-1-0.7-1.6-0.7c-1.6,0-2.8,1.1-3.4,1.7c-1.9,1.9-2.9,4.4-2.9,6
		c0,0.9,0.7,1.8,1.7,1.8c1.6,0,3.4-2.1,4.5-3.8l0.2,0.1c-0.4,1.3-0.9,2.6-0.9,3.2c0,0.4,0.3,0.6,0.8,0.6c1.8,0,3.4-1.8,3.6-2
		c0-0.1,0-0.2,0-0.2L95.6,65c-0.1-0.1-0.2-0.1-0.2,0c-0.1,0.1-1.1,1.1-1.4,1.1c-0.3,0-0.3-0.3-0.1-1c0.4-1.4,4-11.9,4.3-12.7
		c0.1-0.2,0-0.4-0.3-0.4H94.4z M77,65c0.4-0.9,0.8-1.6,1.2-2.3c0.9-1.5,2.8-3.3,3.5-3.3c0.3,0,0.5,0.2,0.5,0.5c0,0.3-0.6,2-1,2.9
		c-0.7,2-1.3,3.5-1.3,3.9s0.3,0.7,0.8,0.7c1.9,0,3.5-1.6,3.7-1.9c0.1-0.1,0.1-0.2,0-0.3l-0.2-0.2C84.1,65,84,65,83.9,65
		c-0.2,0.3-1.1,1.1-1.4,1.1c-0.2,0-0.3-0.1-0.3-0.4c0-0.3,0.3-1.2,0.9-2.7c0.9-2.3,1.2-3.4,1.2-4c0-0.6-0.4-1.3-1.3-1.3
		c-2.1,0-4.2,2.8-4.9,3.9l-0.1-0.1c0.4-1,1.1-2.5,1.1-3c0-0.3-0.2-0.8-0.9-0.8c-2,0-3.5,1.7-3.8,2.1c-0.1,0.1,0,0.2,0,0.2l0.2,0.2
		c0.1,0.1,0.2,0.1,0.2,0c0.4-0.4,1.2-1.2,1.6-1.2c0.2,0,0.3,0.1,0.3,0.4c0,0.3-0.5,1.7-1,3.2L74.4,67c0,0.1,0,0.3,0.2,0.3H76
		c0.2,0,0.3,0,0.3-0.1L77,65z M67.3,66.3c-0.5,0-0.9-0.5-0.9-1.1c0-0.9,0.4-2.3,1.2-3.5c1.1-1.8,2-2.6,2.9-2.6c0.7,0,1,0.5,1,1
		c0,0.8-0.7,2.7-1.5,4.1C69,65.6,68.2,66.3,67.3,66.3 M67.6,67.5c1.3,0,2.4-0.5,3.2-1.5c1.3-1.5,1.9-3.8,1.9-5.3
		c0-2-1.5-2.8-2.8-2.8c-1.2,0-2.3,0.5-3.2,1.4c-1.3,1.4-1.9,3.2-1.9,5.1C64.9,66.5,66.3,67.5,67.6,67.5 M59.7,66.7
		c0-1.1-0.1-3.8-0.3-6.3c-0.1-1.9-0.6-2.5-1.4-2.5c-2,0-2.9,2.7-3,3c0,0.2,0,0.3,0,0.3l0.3,0.1c0.1,0,0.2,0,0.2-0.1
		c0.2-0.5,0.8-1.6,1.2-1.6c0.3,0,0.3,0.2,0.4,0.6c0.3,1,0.8,7,0.8,7.7c0.1,0.6,0,1.1-0.2,1.5c-0.4,0.6-1.2,1.8-2.2,2.6
		c-0.4,0.3-0.8,0.4-1,0.4c-0.2,0-0.4-0.1-0.6-0.3c-0.2-0.2-0.4-0.4-0.8-0.4c-0.5,0-1,0.5-1,1.2c0,0.6,0.4,1.2,1.4,1.2
		c1.4,0,2.7-1.4,3.4-2c2-1.9,4.3-5.9,5.5-8.1c0.8-1.5,1.6-3.5,1.6-4.5c0-0.8-0.3-1.4-1.1-1.4c-0.8,0-1.1,0.5-1.1,0.9
		c0,0.3,0.1,0.6,0.2,0.9c0.1,0.3,0.2,0.6,0.2,1c0,0.5-0.2,1.1-0.3,1.4c-0.3,1.1-1.6,3.8-2,4.5H59.7z M51.4,59c0.5,0,0.7,0.4,0.7,0.8
		c0,0.6-0.4,1.3-0.9,1.7c-0.8,0.6-1.8,0.9-2.2,0.9C49.1,61.1,50.3,59,51.4,59 M52.3,64.8c0,0-0.1,0-0.2,0c-0.5,0.7-1.4,1.4-2.4,1.4
		c-0.6,0-1.2-0.5-1.2-1.4c0-0.8,0.1-1.4,0.2-1.7c0.9,0,2.1-0.3,3.3-0.9c1.3-0.7,2.1-1.8,2.1-2.9c0-0.7-0.5-1.3-1.6-1.3
		c-1.2,0-2.5,0.6-3.4,1.4c-1.8,1.7-2.8,4.1-2.8,5.8c0,1.6,0.9,2.4,2.4,2.4c2,0,3.5-1.4,4-2.3c0-0.1,0-0.1-0.1-0.2L52.3,64.8z
		 M39.5,52.9c0.2,0,0.4,0,0.7,0c1.6,0,2.8,1.2,2.8,2.5c0,2.7-2,3.7-4.1,3.7c-0.3,0-0.8,0-1.1-0.1L39.5,52.9z M37.7,59.9H38
		c1.4,0,3.6,0.6,3.6,3c0,1.8-1.2,3.6-3.6,3.6c-0.4,0-1.1-0.1-1.4-0.3c-0.4-0.2-0.4-0.6-0.2-1.3L37.7,59.9z M33.8,65.1
		c-0.2,0.8-0.6,1.3-1.3,1.3h-0.8c-0.1,0-0.2,0.1-0.2,0.2l-0.1,0.5c0,0.2,0,0.2,0.2,0.2c1,0,2.1-0.1,3.1-0.1c1.1,0,2.2,0.1,3.3,0.1
		c2.7,0,4.1-0.6,5-1.4c1.2-1.1,1.3-2.5,1.3-2.7c0-1.9-1.2-3.1-3.3-3.6c0,0,0-0.1,0-0.1c2.2-0.4,4.7-1.6,4.7-4.3
		c0-1.1-0.6-1.9-1.3-2.4c-1.2-0.7-3.1-0.7-3.7-0.7c-0.6,0-1.2,0-1.8,0c-0.6,0-1.2,0-1.8,0h-1.7c-0.2,0-0.3,0-0.3,0.1l-0.1,0.5
		c0,0.1,0,0.2,0.2,0.2h0.6c0.6,0,1,0.2,1,0.6c0,0.2,0,0.5-0.1,0.8L33.8,65.1z"/>
</g>
</svg>
