<svg xmlns="http://www.w3.org/2000/svg" xmlns:xlink="http://www.w3.org/1999/xlink" version="1.1" id="Layer_1" x="0px" y="0px" width="21px" height="15px" viewBox="0 0 21 15" xml:space="preserve" enable-background="new 0 0 21 15"><metadata><xpacket/><x:xmpmeta xmlns:x="adobe:ns:meta/" x:xmptk="Adobe XMP Core 5.6-c067 79.157747, 2015/03/30-23:40:42        "><rdf:RDF xmlns:rdf="http://www.w3.org/1999/02/22-rdf-syntax-ns#"><rdf:Description rdf:about=""/></rdf:RDF></x:xmpmeta><xpacket/></metadata><g><path d="M7.7 15c0.4 0 0.7-0.3 0.7-0.7 0-0.2 0-0.4-0.2-0.5L2.4 8.2h17.9c0.4 0 0.7-0.3 0.7-0.7 0-0.4-0.3-0.7-0.7-0.7H2.4l5.9-5.6C8.4 1 8.5 0.9 8.5 0.7 8.5 0.3 8.2 0 7.7 0 7.6 0 7.4 0.1 7.2 0.2L0.2 7C0.1 7.1 0 7.3 0 7.5 0 7.7 0.1 7.9 0.2 8l7 6.8C7.4 14.9 7.6 15 7.7 15" fill="#FFFFFF"/></g></svg>