<svg xmlns="http://www.w3.org/2000/svg" xmlns:xlink="http://www.w3.org/1999/xlink" version="1.1" id="Layer_1" x="0px" y="0px" width="15px" height="21px" viewBox="0 0 15 21" xml:space="preserve" enable-background="new 0 0 15 21"><metadata><x:xmpmeta xmlns:x="adobe:ns:meta/" x:xmptk="Adobe XMP Core 5.6-c067 79.157747, 2015/03/30-23:40:42        "><rdf:RDF xmlns:rdf="http://www.w3.org/1999/02/22-rdf-syntax-ns#"><rdf:Description rdf:about=""/></rdf:RDF></x:xmpmeta></metadata><g><path d="M0 7.7c0 0.4 0.3 0.7 0.7 0.7 0.2 0 0.4 0 0.5-0.2l5.6-5.9v17.9c0 0.4 0.3 0.7 0.7 0.7 0.4 0 0.7-0.3 0.7-0.7V2.4l5.6 5.9c0.1 0.2 0.3 0.2 0.5 0.2 0.4 0 0.7-0.3 0.7-0.7 0-0.2-0.1-0.3-0.2-0.5L8 0.2C7.9 0.1 7.7 0 7.5 0 7.3 0 7.1 0.1 7 0.2l-6.8 7C0.1 7.4 0 7.6 0 7.7" fill="#151F25"/></g></svg>