<svg xmlns="http://www.w3.org/2000/svg" xmlns:xlink="http://www.w3.org/1999/xlink" version="1.1" id="Layer_1" x="0px" y="0px" width="21px" height="15px" viewBox="0 0 21 15" xml:space="preserve" enable-background="new 0 0 21 15"><metadata><xpacket/><x:xmpmeta xmlns:x="adobe:ns:meta/" x:xmptk="Adobe XMP Core 5.6-c067 79.157747, 2015/03/30-23:40:42        "><rdf:RDF xmlns:rdf="http://www.w3.org/1999/02/22-rdf-syntax-ns#"><rdf:Description rdf:about=""/></rdf:RDF></x:xmpmeta><xpacket/></metadata><g><path d="M13.3 0c-0.4 0-0.7 0.3-0.7 0.7 0 0.2 0 0.4 0.2 0.5l5.9 5.6H0.7C0.3 6.8 0 7.1 0 7.5c0 0.4 0.3 0.7 0.7 0.7h17.9l-5.9 5.6c-0.2 0.1-0.2 0.3-0.2 0.5 0 0.4 0.3 0.7 0.7 0.7 0.2 0 0.3-0.1 0.5-0.2l7-6.8C20.9 7.9 21 7.7 21 7.5c0-0.2-0.1-0.4-0.2-0.5l-7-6.8C13.6 0.1 13.4 0 13.3 0" fill="#FFFFFF"/></g></svg>