<svg xmlns="http://www.w3.org/2000/svg" xmlns:xlink="http://www.w3.org/1999/xlink" version="1.1" id="Layer_1" x="0px" y="0px" width="200px" height="35px" viewBox="0 0 200 35" xml:space="preserve" enable-background="new 0 0 200 35"><metadata><xpacket/><x:xmpmeta xmlns:x="adobe:ns:meta/" x:xmptk="Adobe XMP Core 5.6-c067 79.157747, 2015/03/30-23:40:42        "><rdf:RDF xmlns:rdf="http://www.w3.org/1999/02/22-rdf-syntax-ns#"><rdf:Description rdf:about=""/></rdf:RDF></x:xmpmeta><xpacket/></metadata><g><path d="M9.8 3.1H8.6c-1.1 0-3 0-4.4 0.5C3.5 4.1 2 6.1 1.2 7.3 1.1 7.5 1 7.6 0.9 7.6L0.1 7.3C0 7.3 0 7.1 0 7c0.4-1.4 1.5-5.8 1.6-6.4C1.7 0.1 1.9 0 2.1 0c0.2 0 0.3 0.1 0.6 0.5 0.4 0.5 1 0.8 2.2 0.8C6.6 1.4 8 1.5 11.5 1.5h1.9c3.6 0 5-0.1 6.4-0.2 0.7 0 2-0.4 2.4-0.8C22.5 0.2 22.7 0 22.9 0c0.2 0 0.3 0.1 0.4 0.5 0.1 0.7 0.7 4.8 1 6.6 0 0.1 0 0.3-0.1 0.3l-0.7 0.3c-0.1 0-0.2-0.1-0.3-0.3 -0.7-1.2-2-2.9-2.8-3.7 -0.8-0.5-3.8-0.6-4.5-0.6h-1.1v9.1c0 0.5 0 9.8 0 10.3 0.1 0.8 0.3 1.3 1.1 1.3h1.5c0.3 0 0.3 0.1 0.3 0.3v0.8c0 0.2 0 0.3-0.3 0.3 -0.3 0-1.4-0.1-5-0.1 -3.5 0-4.9 0.1-5.3 0.1 -0.3 0-0.3-0.1-0.3-0.4v-0.6c0-0.2 0-0.3 0.2-0.3h1.7c0.7 0 1.1-0.4 1.1-1 0.1-0.7 0.1-10.9 0.1-11.5V3.1z" fill="#FFF"/><path d="M45.7 13.8c0-7.3-4.7-11.3-7.5-11.3 -0.7 0-2.3-0.2-4.3 1.8C31.9 6.2 31 9.7 31 12.4c0 8.5 4.9 11.5 7.6 11.5C44.6 24 45.7 16.6 45.7 13.8M30.5 23.4c-2.3-1.4-4.8-5-4.8-9.9 0-2 0.5-5.2 3.1-8.3C31.7 1.7 35.4 1 38.3 1c2.7 0 5.3 0.4 8 2.6 2.5 2 4.5 5.3 4.5 9.9 0 2.4-0.8 4.9-2.5 7.3 -2.1 2.7-4.9 4.7-10.2 4.7C36 25.5 33.1 25 30.5 23.4" fill="#FFF"/><path d="M62 13.5c0.6 0 1 0 1.3 0 4.4 0 5.4-4.2 5.4-5.7 0-1.5-0.5-3-1.3-3.7 -1.2-1.1-2.7-1.5-3.7-1.5 -0.6 0-1 0.1-1.3 0.3 -0.2 0.1-0.3 0.5-0.4 0.9L62 13.5zM57.4 9.9c0-2.5 0-4.6 0-5.5 0-1.1-0.5-1.7-0.9-1.7h-1.3c-0.2 0-0.2-0.1-0.2-0.2V1.7c0-0.2 0-0.2 0.2-0.2 0.3 0 1.3 0.1 4.9 0.1 1.8 0 4.8-0.1 6.1-0.1 2.6 0 4.5 0.9 5.8 2.2 1.2 1.1 1.9 2.4 1.9 3.6 0 4.2-3.1 6.1-6 6.4v0.2c1 0.3 1.5 1 2.2 1.8 0.4 0.5 2.2 3.5 2.5 3.9 0.2 0.3 2 2.8 2.6 3.6 0.4 0.4 1.7 0.7 2.4 0.7 0.2 0 0.3 0.1 0.3 0.3v0.8c0 0.2 0 0.3-0.3 0.3 -0.3 0-1.1-0.1-3.7-0.1 -1 0-2.2 0.1-3.1 0.1 -1-0.8-3-4.6-3.6-5.7 -1.1-2.3-2.5-4.7-4.1-4.7H62v1.7c0 2 0.1 5.7 0.2 6.1 0.1 0.7 0.3 1.3 0.8 1.3h1.4c0.2 0 0.3 0.1 0.3 0.3v0.8c0 0.2 0 0.3-0.5 0.3 0 0-0.9-0.1-4.3-0.1 -3.5 0-4.3 0.1-4.6 0.1 -0.3 0-0.3-0.1-0.3-0.3V24c0-0.2 0-0.3 0.2-0.3h1c0.7 0 1.3-0.2 1.3-1.1 0.1-3.3 0.1-6.4 0.1-9.6V9.9z" fill="#FFF"/><path d="M111.5 35L111.5 35c-0.4 0-0.7 0-1 0 -0.6 0-1.2-0.1-1.7-0.2 -5.1-0.6-9.7-2.8-14.3-6.7 -1.1-1-2.2-2.1-3.2-3.3L91 24.5l3.4-0.7 0.1 0.1c1.5 1.2 3.2 2.4 5 3.8 3.6 2.6 8 4.4 11.8 4.8 4 0.5 7.2-0.5 9.4-2.9 0.1-0.2 0.4-0.3 0.6-0.3 0.4 0 0.7 0.2 0.8 0.5 0.1 0.1 0.2 0.5-0.1 0.9C119.2 34.4 114.2 35 111.5 35" fill="#FFF"/><path d="M98.5 13.8c0-7.3-4.7-11.3-7.5-11.3 -0.7 0-2.3-0.2-4.3 1.8 -1.9 1.9-2.9 5.3-2.9 8.1 0 8.5 4.9 11.5 7.6 11.5C97.4 24 98.5 16.6 98.5 13.8M83.3 23.4c-2.3-1.4-4.9-5-4.9-9.9 0-2 0.5-5.2 3.1-8.3C84.4 1.7 88.1 1 91.1 1c2.7 0 5.3 0.4 8 2.6 2.5 2 4.5 5.3 4.5 9.9 0 2.4-0.8 4.9-2.5 7.3 -2.1 2.7-5 4.7-10.2 4.7C88.7 25.5 85.9 25 83.3 23.4" fill="#FFF"/><path d="M109.3 4.5c0-1.2-0.2-1.7-0.9-1.7h-1.6c-0.2 0-0.2-0.1-0.2-0.3V1.7c0-0.2 0-0.3 0.3-0.3 0.3 0 1.9 0.1 5.4 0.1 2.9 0 4.5-0.1 4.8-0.1 0.3 0 0.3 0.1 0.3 0.3v0.9c0 0.2 0 0.2-0.3 0.2H116c-1.1 0-1.7 0.6-1.7 1.3 0 0.4-0.1 2.6-0.1 4.3v2.2c0 1.8 0.1 6 0.2 7 0 1.5 0.3 3 1.1 3.9 1.1 1.3 2.6 1.9 4.1 1.9 1.2 0 3-0.6 3.9-1.5 1.3-1.2 2.1-3 2.1-5.4v-5.1c0-2.8-0.3-6.4-0.5-7.2 -0.1-0.9-0.7-1.5-1.2-1.5h-1.1c-0.2 0-0.2-0.1-0.2-0.3V1.7c0-0.2 0-0.2 0.2-0.2 0.3 0 1.8 0.1 4.1 0.1 1.8 0 2.8-0.1 3.1-0.1 0.3 0 0.3 0.1 0.3 0.3v0.7c0 0.2 0 0.3-0.2 0.3h-1c-1.3 0-1.4 0.9-1.4 1.3 -0.1 0.5-0.1 5-0.1 5.5 0 0.5-0.1 6.3-0.2 7.6 -0.2 2.7-1.1 4.8-2.8 6.3 -1.5 1.3-3.7 2.1-5.8 2.1 -1.5 0-3.7-0.2-5-0.8 -1.6-0.7-3-2.3-3.8-4.4 -0.6-1.4-0.7-3.7-0.7-8V4.5z" fill="#FFF"/><path d="M141.1 12.3c1.5 0 3-0.1 3.4-0.2 0.6-0.1 1-0.4 1.5-1 0.4-0.5 0.8-1.4 0.8-2.1 0-0.2 0.1-0.3 0.3-0.3l0.9 0.1c0.2 0 0.3 0.1 0.3 0.3 -0.1 0.6-0.1 2.3-0.1 3.5 0 1.5 0.1 3.1 0.2 3.8 0 0.2-0.1 0.2-0.3 0.3l-0.8 0.2c-0.1 0-0.2 0-0.3-0.3 -0.1-0.5-0.5-1.3-0.7-1.7 -0.4-0.6-1.2-1.1-1.8-1.2 -0.9-0.1-1.9-0.2-3.4-0.2v2c0 1.8 0.2 5 0.2 5.6 0 1.7 0.4 2.3 0.8 2.5 0.5 0.2 1.1 0.3 2.8 0.3 0.6 0 1.9 0 2.6-0.1 0.7-0.1 1.6-0.4 2.5-1.1 0.9-0.7 2.7-2.8 3.4-3.6 0.1-0.1 0.2-0.2 0.3-0.1l0.6 0.3c0.1 0.1 0.2 0.2 0.1 0.3l-1.5 5c-0.1 0.3-0.3 0.5-0.7 0.5 -0.2 0-0.9 0-3-0.1 -2.1 0-5.6 0-11.3 0 -1.2 0-2.1 0-2.8 0 -0.7 0-1.1 0.1-1.4 0.1 -0.2 0-0.3-0.1-0.3-0.4v-0.7c0-0.2 0.1-0.3 0.3-0.3h1c1.5 0 1.6-0.2 1.6-1.4V11.3c0-2.8-0.1-6.8-0.1-7.2 -0.1-1.1-0.5-1.3-1.3-1.3h-1.3c-0.1 0-0.2-0.1-0.2-0.3V1.7c0-0.1 0-0.2 0.2-0.2 0.7 0 1.9 0.1 4.9 0.1l11.6 0c0.5 0 1.2-0.1 1.3-0.1 0.2 0 0.2 0.1 0.3 0.2 0.1 0.5 1.2 5 1.4 5.3 0.1 0.2 0.1 0.2-0.1 0.3l-0.5 0.3c-0.1 0.1-0.3 0-0.4-0.1 -0.2-0.3-3.1-3.3-3.9-3.7 -0.7-0.4-1.6-0.9-2.5-0.9l-4.4-0.1L141.1 12.3z" fill="#FFF"/><path d="M159.8 17.7c0.1 0 0.2 0 0.2 0.3 0.1 1 0.5 2.5 1.3 3.7 1 1.5 2.6 2.3 4.2 2.3 1.6 0 4.1-1.1 4.1-3.7 0-2.8-0.5-3.6-4.8-5.2 -1-0.4-3.1-1.4-4.8-2.9 -1.2-1-1.7-2.8-1.7-4.7 0-2 0.5-3.4 2.5-4.9 1.5-1.1 2.7-1.6 4.8-1.6 2.4 0 3.7 0.4 4.4 0.7 0.3 0.1 0.6 0.1 0.8-0.2l0.4-0.4c0.1-0.1 0.3-0.2 0.5-0.2 0.2 0 0.3 0.4 0.3 0.6l0.5 5.7c0 0.1-0.1 0.2-0.2 0.2l-0.7 0.2c-0.2 0.1-0.3 0-0.4-0.2 -0.4-1-0.9-2.3-2-3.5 -0.8-0.9-1.8-1.4-3.3-1.4 -2.5 0-3.5 2.2-3.5 3 0 1.2 0 2.2 0.9 3.1 0.9 0.9 2.7 1.7 4.4 2.2 1.6 0.5 2.9 1.3 4.2 2.5 1.3 1.2 1.8 2.6 1.8 4.9 0 4-2.9 7.3-7.2 7.3 -3 0-4.5-0.5-5.9-1.4 -0.4-0.3-0.6-0.4-0.8-0.4 -0.2 0-0.3 0.2-0.5 0.6 -0.2 0.4-0.4 0.4-0.6 0.4 -0.4 0-0.5-0.2-0.5-0.5l0.5-6.3c0-0.2 0.1-0.2 0.3-0.2L159.8 17.7z" fill="#FFF"/><path d="M185.4 3.1h-1.2c-1.1 0-3 0-4.4 0.5 -0.7 0.5-2.2 2.6-3 3.8 -0.1 0.2-0.2 0.3-0.3 0.2l-0.7-0.3c-0.1 0-0.2-0.2-0.1-0.3 0.4-1.4 1.4-5.8 1.6-6.4 0.1-0.4 0.3-0.6 0.5-0.6 0.2 0 0.3 0.1 0.6 0.5 0.4 0.5 1 0.8 2.2 0.8 1.7 0.1 3.1 0.2 6.6 0.2h1.9c3.6 0 5-0.1 6.4-0.2 0.7 0 2-0.4 2.4-0.8 0.3-0.3 0.5-0.5 0.8-0.5 0.2 0 0.3 0.1 0.4 0.5 0.1 0.7 0.7 4.8 1 6.6 0 0.1 0 0.3-0.1 0.3l-0.7 0.3c-0.1 0-0.2-0.1-0.3-0.3 -0.7-1.2-2-2.9-2.8-3.7 -0.8-0.5-3.8-0.6-4.5-0.6h-1.1v9.1c0 0.5 0 9.8 0 10.3 0.1 0.8 0.3 1.3 1.1 1.3h1.5c0.3 0 0.3 0.1 0.3 0.3v0.8c0 0.2 0 0.3-0.3 0.3 -0.3 0-1.4-0.1-5-0.1 -3.5 0-4.9 0.1-5.3 0.1 -0.3 0-0.3-0.1-0.3-0.4v-0.6c0-0.2 0-0.3 0.2-0.3h1.7c0.7 0 1.1-0.4 1.1-1 0.1-0.7 0.1-10.9 0.1-11.5V3.1z" fill="#FFF"/></g></svg>